<svg id="Capa_1" enable-background="new 0 0 512 512" height="512" viewBox="0 0 512 512" width="512" xmlns="http://www.w3.org/2000/svg"><path d="m482 30h-82v-20c0-5.523-4.478-10-10-10h-89c-5.522 0-10 4.477-10 10s4.478 10 10 10h79v66h-248v-66h79c5.522 0 10-4.477 10-10s-4.478-10-10-10h-89c-5.522 0-10 4.477-10 10v20h-82c-16.542 0-30 13.458-30 30v148c0 21.111 12.213 40.794 31 50.922v233.078h-21c-5.522 0-10 4.477-10 10s4.478 10 10 10h492c5.522 0 10-4.477 10-10s-4.478-10-10-10h-21v-233.081c18.203-9.767 31-28.721 31-50.919 0-16.81 0-129.517 0-148 0-16.542-13.458-30-30-30zm-452 20h82v46c0 5.523 4.478 10 10 10h268c5.522 0 10-4.477 10-10v-46h82c5.514 0 10 4.486 10 10v66c-93.636 0-386.696 0-472 0v-66c0-5.514 4.486-10 10-10zm88 96h78v62c0 20.918-17.902 38-39 38-21.141 0-39-17.402-39-38zm98 0h80v62c0 21.105-19.155 38-40 38-21.683 0-40-17.402-40-38zm100 0h78v62c0 20.918-17.902 38-39 38-21.141 0-39-17.402-39-38zm-296 0h78v62c0 20.918-17.902 38-39 38-21.306 0-39-17.44-39-38zm144 280h-73v-100h73zm-73 20h73v46h-73zm93 46v-176c0-5.523-4.478-10-10-10h-93c-5.522 0-10 4.477-10 10v176h-20v-226.549c2.641.361 5.311.549 8 .549 20.397 0 38.351-10.377 49.001-25.869 10.637 15.477 28.578 25.869 48.999 25.869 20.485 0 38.545-10.474 49.19-26.158 10.88 15.634 29.342 26.158 49.81 26.158 19.014 0 38.206-9.45 49.851-26.099 10.765 15.824 28.874 26.099 49.149 26.099 20.397 0 38.351-10.377 49.001-25.869 10.637 15.477 28.578 25.869 48.999 25.869 2.689 0 5.358-.188 8-.549v226.549zm308-284c0 21.14-18.161 38-39 38-21.141 0-39-17.402-39-38v-62h78z"/><path d="m431 306h-206c-5.522 0-10 4.477-10 10v120c0 5.523 4.478 10 10 10h206c5.522 0 10-4.477 10-10v-120c0-5.523-4.478-10-10-10zm-10 120h-42v-20h11c5.522 0 10-4.477 10-10s-4.478-10-10-10h-41c-5.522 0-10 4.477-10 10s4.478 10 10 10h10v20h-62v-20h11c5.522 0 10-4.477 10-10s-4.478-10-10-10h-42c-5.522 0-10 4.477-10 10s4.478 10 10 10h11v20h-42v-100h186z"/><circle cx="256" cy="10" r="10"/></svg>