<?xml version="1.0" encoding="iso-8859-1"?>
<!-- Generator: Adobe Illustrator 19.0.0, SVG Export Plug-In . SVG Version: 6.00 Build 0)  -->
<svg version="1.1" id="Capa_1" xmlns="http://www.w3.org/2000/svg" xmlns:xlink="http://www.w3.org/1999/xlink" x="0px" y="0px"
	 viewBox="0 0 512 512" style="enable-background:new 0 0 512 512;" xml:space="preserve">
<path style="fill:#F6B445;" d="M501.334,96v298.667c-0.02,11.314-4.505,22.162-12.48,30.187L298.667,234.667l-2.987-4.587
	L501.334,96z"/>
<path style="fill:#FED049;" d="M488.854,424.854c-8.025,7.975-18.873,12.46-30.187,12.48H53.334
	c-11.314-0.02-22.162-4.505-30.187-12.48l190.187-190.187l2.667-4.16L256,256l39.68-25.92l2.987,4.587L488.854,424.854z"/>
<path style="fill:#F6B445;" d="M216,230.507l-2.667,4.16L23.147,424.854c-7.975-8.025-12.46-18.873-12.48-30.187V117.334
	c-0.013-4.304,0.634-8.585,1.92-12.693l8.747,2.027L216,230.507z"/>
<path style="fill:#FED049;" d="M501.334,96L295.68,230.08L256,256l-40-25.493L21.334,106.667l-8.747-2.027
	c5.557-17.833,22.068-29.979,40.747-29.973H448C490.667,74.667,501.334,96,501.334,96L501.334,96z"/>
<path style="fill:#474C54;" d="M506.422,86.624c-3.442-1.868-7.631-1.701-10.912,0.437L255.926,243.307L27.734,98.134
	c6.03-8.074,15.523-12.82,25.6-12.8H448c5.891,0,10.667-4.776,10.667-10.667S453.891,64,448,64H53.334
	C29.98,63.929,9.32,79.118,2.422,101.43c-1.62,5.145-2.437,10.51-2.421,15.904v277.333C-0.029,424.093,23.801,447.971,53.227,448
	c0.036,0,0.071,0,0.107,0h405.333c29.426,0.029,53.304-23.801,53.333-53.227c0-0.036,0-0.071,0-0.107V96
	C512.001,92.088,509.86,88.49,506.422,86.624L506.422,86.624z M490.667,394.667c0.035,17.638-14.234,31.965-31.872,32
	c-0.043,0-0.085,0-0.128,0H53.334c-17.638,0.035-31.965-14.234-32-31.872c0-0.043,0-0.085,0-0.128v-275.36l178.613,113.664
	L88.459,344.459c-4.237,4.093-4.354,10.845-0.262,15.083c4.093,4.237,10.845,4.354,15.083,0.262
	c0.089-0.086,0.176-0.173,0.262-0.262l114.837-114.837l31.883,20.267c3.535,2.255,8.063,2.23,11.573-0.064l31.499-20.512
	l115.147,115.2c4.237,4.093,10.99,3.976,15.083-0.261c3.993-4.134,3.993-10.688,0-14.821L311.574,232.534l179.093-116.843V394.667z"
	/>
<g>
</g>
<g>
</g>
<g>
</g>
<g>
</g>
<g>
</g>
<g>
</g>
<g>
</g>
<g>
</g>
<g>
</g>
<g>
</g>
<g>
</g>
<g>
</g>
<g>
</g>
<g>
</g>
<g>
</g>
</svg>
