<svg id="Capa_1" enable-background="new 0 0 512 512" height="512" viewBox="0 0 512 512" width="512" xmlns="http://www.w3.org/2000/svg"><g><path d="m419.549 451.168 3-13.559v-43.273l-26.643-114.632 26.643-118.115v-105.065h-333.098v381.085l3 13.559z" fill="#80b4fb"/><path d="m419.549 451.168 3-13.559v-43.273l-26.642-114.632 26.642-118.115v-105.065h-33.509v391.967c0 .903-.047 1.795-.125 2.677z" fill="#61a2f9"/><g><path d="m392.549 0h-273.098c-16.569 0-30 13.431-30 30v52.726h333.097v-52.726c.001-16.569-13.431-30-29.999-30z" fill="#365e7d"/></g><path d="m392.549 0h-3.509v82.726h33.509v-52.726c0-16.569-13.432-30-30-30z" fill="#2b4d66"/><g><path d="m422.549 161.589h-133.017v214.744c0 5.682 4.606 10.288 10.288 10.288h122.729z" fill="#cbe2ff"/></g><path d="m389.04 161.589h33.509v225.032h-33.509z" fill="#bed8fb"/><g><path d="m276.79 40.89h-41.58c-4.261 0-7.716-3.454-7.716-7.716s3.455-7.716 7.716-7.716h41.58c4.262 0 7.716 3.454 7.716 7.716s-3.454 7.716-7.716 7.716z" fill="#2b4d66"/></g><g><path d="m242.431 455.558h-112.163v-186.04c0-5.523 4.477-10 10-10h92.163c5.523 0 10 4.477 10 10z" fill="#ffe07d"/></g><g><path d="m232.143 259.518h-29.462c5.682 0 10.288 4.606 10.288 10.288v185.752h29.462v-185.752c0-5.682-4.606-10.288-10.288-10.288z" fill="#ffd064"/></g><g><circle cx="166.835" cy="359.081" fill="#ffc250" r="9.947"/></g><path d="m422.549 288.237v-15.432h-44.656v-111.216h-15.432v111.216h-65.213v-111.216h-15.432v214.743c0 9.927 8.077 18.004 18.004 18.004h122.729v-15.432h-44.656v-90.667zm-60.088 90.668h-62.641c-1.419 0-2.572-1.153-2.572-2.572v-88.095h65.213z" fill="#ffd064"/><g><path d="m145.164 162.77h-73.891v-61.963c0-15.947 12.928-28.875 28.875-28.875h45.016z" fill="#b3e59f"/></g><g><path d="m145.164 71.932h73.891v90.838h-73.891z" fill="#f4fbff"/></g><g><path d="m219.055 71.932h73.891v90.838h-73.891z" fill="#b3e59f"/></g><g><path d="m440.727 162.77h-73.891v-90.838h45.016c15.947 0 28.875 12.928 28.875 28.875z" fill="#b3e59f"/></g><g><path d="m292.945 71.932h73.891v90.838h-73.891z" fill="#f4fbff"/></g><g><path d="m329.891 208.766c-20.405 0-36.946-16.541-36.946-36.945v-21.76h73.891v21.76c0 20.404-16.541 36.945-36.945 36.945z" fill="#e4f6ff"/></g><g><path d="m116.494 71.931h28.669v90.838h-28.669z" fill="#95d6a4"/></g><g><path d="m190.385 71.931h28.669v90.838h-28.669z" fill="#e4f6ff"/></g><g><path d="m264.276 71.931h28.669v90.838h-28.669z" fill="#95d6a4"/></g><g><path d="m412.058 71.936v90.834h28.669v-62.001c0-15.87-12.82-28.743-28.669-28.833z" fill="#95d6a4"/></g><g><path d="m338.167 71.931h28.669v90.838h-28.669z" fill="#e4f6ff"/></g><g><path d="m338.167 150.061v21.76c0 15.321-9.326 28.462-22.611 34.06 4.408 1.857 9.251 2.885 14.335 2.885 20.404 0 36.945-16.541 36.945-36.945v-21.76z" fill="#d3effb"/></g><g><path d="m403.782 208.766c-20.405 0-36.946-16.541-36.946-36.945v-21.76h73.891v21.76c0 20.404-16.541 36.945-36.945 36.945z" fill="#95d6a4"/></g><g><path d="m412.058 150.061v21.76c0 15.321-9.326 28.462-22.611 34.06 4.408 1.857 9.251 2.885 14.335 2.885 20.404 0 36.945-16.541 36.945-36.945v-21.76z" fill="#78c2a4"/></g><g><path d="m256 208.766c-20.404 0-36.946-16.541-36.946-36.945v-21.76h73.891v21.76c0 20.404-16.541 36.945-36.945 36.945z" fill="#95d6a4"/></g><g><path d="m264.276 150.061v21.76c0 15.321-9.326 28.462-22.611 34.06 4.408 1.857 9.251 2.885 14.335 2.885 20.404 0 36.945-16.541 36.945-36.945v-21.76z" fill="#78c2a4"/></g><g><path d="m108.218 208.766c-20.404 0-36.946-16.541-36.946-36.945v-21.76h73.891v21.76c.001 20.404-16.541 36.945-36.945 36.945z" fill="#95d6a4"/></g><g><path d="m116.494 150.061v21.76c0 15.321-9.326 28.462-22.611 34.06 4.408 1.857 9.251 2.885 14.335 2.885 20.404 0 36.945-16.541 36.945-36.945v-21.76z" fill="#78c2a4"/></g><g><path d="m182.109 208.766c-20.404 0-36.946-16.541-36.946-36.945v-21.76h73.891v21.76c.001 20.404-16.541 36.945-36.945 36.945z" fill="#e4f6ff"/></g><g><path d="m190.385 150.061v21.76c0 15.321-9.326 28.462-22.611 34.06 4.408 1.857 9.251 2.885 14.335 2.885 20.404 0 36.945-16.541 36.945-36.945v-21.76z" fill="#d3effb"/></g><g><path d="m89.451 437.609v44.391c0 16.569 13.431 30 30 30h273.097c16.569 0 30-13.431 30-30v-44.391l-16.755 3.345-16.755-3.345z" fill="#365e7d"/></g><path d="m389.04 437.609v10.882c0 16.569-13.431 30-30 30h-269.589v3.509c0 16.568 13.431 30 30 30h273.097c16.569 0 30-13.432 30-30v-44.391z" fill="#2b4d66"/><g><path d="m263.826 482.48h-12.749c-4.261 0-7.716-3.454-7.716-7.716s3.455-7.716 7.716-7.716h12.749c4.262 0 7.716 3.454 7.716 7.716s-3.454 7.716-7.716 7.716z" fill="#2b4d66"/></g></g></svg>