<svg id="Capa_1" enable-background="new 0 0 512 512" height="512" viewBox="0 0 512 512" width="512" xmlns="http://www.w3.org/2000/svg"><g><g><path d="m464.649 450.339h-279.218l-55.777-20.437-55.777 20.437h-26.526c-8.284 0-15-6.716-15-15v-254.369h437.299l.214 164.564 9.786 39.96v49.845c-.001 8.284-6.716 15-15.001 15z" fill="#80b4fb"/></g><path d="m428.449 180.97v254.369c0 8.284-6.716 15-15 15h51.2c8.284 0 15-6.716 15-15v-49.845l-9.786-39.96-.214-164.564z" fill="#61a2f9"/><g><path d="m479.649 377.82h-243.577c-5.523 0-10-4.477-10-10v-173.504h253.578v183.504z" fill="#cbe2ff"/></g><path d="m428.449 194.316h51.2v183.503h-51.2z" fill="#bed8fb"/><g><path d="m185.431 450.339h-111.553v-158.969c0-5.523 4.477-10 10-10h91.553c5.523 0 10 4.477 10 10z" fill="#ffe07d"/></g><g><path d="m175.431 281.37h-29.533c5.651 0 10.232 4.581 10.232 10.232v158.737h29.301v-158.969c0-5.523-4.477-10-10-10z" fill="#ffd064"/></g><g><circle cx="110.246" cy="375.747" fill="#ffc250" r="9.893"/></g><path d="m479.649 310.681v-15.348h-119.115v-101.017h-15.348v101.017h-111.441v-108.691h-15.348v180.945c0 9.873 8.033 17.906 17.906 17.906h243.346v-15.348h-119.115v-59.465h119.115zm-134.463 59.465h-108.883c-1.41 0-2.558-1.147-2.558-2.558v-56.907h111.441z" fill="#ffd064"/><g><path d="m102.4 187.547h-102.4v-97.011c0-15.947 12.928-28.875 28.875-28.875h73.525z" fill="#b3e59f"/></g><g><path d="m102.4 61.661h102.4v125.886h-102.4z" fill="#f4fbff"/></g><g><path d="m204.8 61.661h102.4v125.886h-102.4z" fill="#b3e59f"/></g><g><path d="m512 187.547h-102.4v-125.886h73.525c15.947 0 28.875 12.928 28.875 28.875z" fill="#b3e59f"/></g><g><path d="m307.2 61.661h102.4v125.886h-102.4z" fill="#f4fbff"/></g><path d="m72.471 61.661h29.929v125.886h-29.929z" fill="#95d6a4"/><path d="m174.872 61.661h29.928v125.886h-29.928z" fill="#e4f6ff"/><path d="m277.271 61.661h29.929v125.886h-29.929z" fill="#95d6a4"/><path d="m483.125 61.661h-29.928c15.947 0 28.875 12.928 28.875 28.875v97.011h29.928v-97.011c0-15.947-12.928-28.875-28.875-28.875z" fill="#95d6a4"/><path d="m379.672 61.661h29.928v125.886h-29.928z" fill="#e4f6ff"/><g><path d="m460.8 251.291c-28.277 0-51.2-22.923-51.2-51.2v-30.155h102.4v30.155c0 28.277-22.923 51.2-51.2 51.2z" fill="#95d6a4"/></g><path d="m482.072 169.936v30.155c0 23.07-15.261 42.571-36.236 48.972 4.734 1.445 9.757 2.228 14.964 2.228 28.277 0 51.2-22.923 51.2-51.2v-30.155z" fill="#78c2a4"/><g><path d="m358.4 251.291c-28.277 0-51.2-22.923-51.2-51.2v-30.155h102.4v30.155c0 28.277-22.923 51.2-51.2 51.2z" fill="#e4f6ff"/></g><path d="m379.672 169.936v30.155c0 23.07-15.26 42.571-36.236 48.972 4.734 1.445 9.757 2.228 14.964 2.228 28.277 0 51.2-22.923 51.2-51.2v-30.155z" fill="#d3effb"/><g><path d="m256 251.291c-28.277 0-51.2-22.923-51.2-51.2v-30.155h102.4v30.155c0 28.277-22.923 51.2-51.2 51.2z" fill="#95d6a4"/></g><path d="m277.271 169.936v30.155c0 23.07-15.26 42.571-36.236 48.972 4.734 1.445 9.757 2.228 14.964 2.228 28.277 0 51.2-22.923 51.2-51.2v-30.155z" fill="#78c2a4"/><g><path d="m153.6 251.291c-28.277 0-51.2-22.923-51.2-51.2v-30.155h102.4v30.155c0 28.277-22.923 51.2-51.2 51.2z" fill="#e4f6ff"/></g><path d="m174.872 169.936v30.155c0 23.07-15.26 42.571-36.236 48.972 4.734 1.445 9.757 2.228 14.964 2.228 28.277 0 51.2-22.923 51.2-51.2v-30.155z" fill="#d3effb"/><g><path d="m51.2 251.291c-28.277 0-51.2-22.923-51.2-51.2v-30.155h102.4v30.155c0 28.277-22.923 51.2-51.2 51.2z" fill="#95d6a4"/></g><path d="m72.471 169.936v30.155c0 23.07-15.26 42.571-36.236 48.972 4.734 1.445 9.757 2.228 14.964 2.228 28.277 0 51.2-22.923 51.2-51.2v-30.155z" fill="#78c2a4"/></g></svg>