<svg id="Capa_1" enable-background="new 0 0 512.068 512.068" height="512" viewBox="0 0 512.068 512.068" width="512" xmlns="http://www.w3.org/2000/svg"><path d="m368.156 512.037c-28.497 0-55.807-8.201-79.373-23.775-10.851 1.453-21.84 2.188-32.75 2.188-65.124 0-126.353-25.263-172.408-71.136-46.071-45.889-71.443-106.905-71.443-171.809 0-9.151.522-18.384 1.555-27.505-32.056-76.459-6.452-162.135 60.587-200.687 38.523-22.153 85.105-25.334 128.534-8.939 17.409-3.859 35.274-5.814 53.175-5.814 65.124 0 126.353 25.263 172.407 71.136 46.071 45.889 71.443 106.905 71.443 171.81 0 17.499-1.889 34.962-5.619 51.997 11.666 21.102 17.804 44.87 17.804 69.133 0 79.071-64.558 143.401-143.912 143.401z" fill="#00adf2"/><path d="m494.264 299.502c3.73-17.035 5.619-34.497 5.619-51.997 0-64.904-25.372-125.921-71.443-171.81-45.942-45.761-106.985-71.007-171.931-71.13v485.881c10.754-.021 21.581-.752 32.274-2.184 23.566 15.574 50.876 23.775 79.373 23.775 79.354 0 143.912-64.33 143.912-143.402 0-24.263-6.138-48.031-17.804-69.133z" fill="#008be0"/><path d="m256.849 418.452c-35.931-.252-64.67-6.943-87.86-20.454-7.592-4.424-21.851-14.003-32.036-28.449-9.942-14.101-12.915-28.897-8.596-42.789 4.1-13.192 17.446-22.767 31.733-22.767 1.117 0 2.245.059 3.352.176 15.558 1.636 26.186 14.522 34.725 24.877l.337.409c16.816 20.384 33.352 28.74 57.074 28.844h.299c13.048 0 32.119-3.927 42.925-14.993 5.444-5.575 8.091-12.372 7.87-20.202-.613-21.666-24.594-26.744-45.753-31.225-3.975-.841-7.728-1.636-11.21-2.522-3.825-.974-7.744-1.936-11.721-2.912l-.218-.054c-23.555-5.78-50.247-12.33-71.182-24.84-24.743-14.787-37.616-35.418-39.357-63.073-1.663-26.406 6.191-49.667 22.712-67.269 14.766-15.732 36.603-27.214 63.149-33.205 11.239-2.536 24.239-3.877 37.593-3.877 18.041 0 35.952 2.343 51.799 6.776 35.699 9.986 59.289 29.262 68.221 55.745 4.982 14.773.798 28.775-11.192 37.454-6.161 4.46-13.458 6.818-21.103 6.818-8.228 0-16.17-2.692-22.97-7.787-6.455-4.836-12.138-10.191-17.152-14.916-13.184-12.422-23.597-22.234-43.662-22.98-.711-.026-1.435-.039-2.171-.039-13.28 0-32.302 4.403-42.685 14.07-4.756 4.429-7.269 9.607-7.466 15.392-.718 21.042 32.709 28.123 52.682 32.354 2.538.538 4.91 1.04 7.011 1.526 5.23 1.208 10.499 2.313 16.077 3.481 28.076 5.883 59.817 12.535 82.171 33.518 19.622 18.419 28.295 46.912 23.795 78.174-4.124 28.65-20.286 51.588-46.739 66.336-21.294 11.871-49.477 18.408-79.357 18.408z" fill="#f6f6f6"/><g fill="#d7f2f9"><path d="m256.509 155.362c18.831 1.28 29.022 10.832 41.781 22.855 5.014 4.725 10.697 10.08 17.152 14.916 6.799 5.094 14.742 7.787 22.97 7.787 7.644-.001 14.941-2.358 21.103-6.818 11.991-8.679 16.175-22.681 11.192-37.454-8.932-26.482-32.522-45.758-68.221-55.745-14.14-3.956-29.925-6.234-45.977-6.682z"/><path d="m360.248 255.537c-22.353-20.983-54.095-27.634-82.171-33.518-5.578-1.169-10.847-2.273-16.077-3.481-1.675-.387-3.526-.786-5.491-1.203v73.598c1.441.313 2.905.626 4.412.945 21.158 4.481 45.139 9.559 45.753 31.225.221 7.83-2.426 14.627-7.87 20.202-10.636 10.893-29.269 14.859-42.294 14.981v60.16c.115.001.225.005.34.006l1.098.003c29.881 0 58.063-6.538 79.357-18.408 26.453-14.747 42.615-37.686 46.739-66.336 4.499-31.262-4.174-59.755-23.796-78.174z"/></g></svg>