<svg id="Layer_1" enable-background="new 0 0 512 512" height="512" viewBox="0 0 512 512" width="512" xmlns="http://www.w3.org/2000/svg"><path d="m440.574 218.423h-222.085c-12.434-19.401-34.136-32.32-58.84-32.32s-46.406 12.919-58.84 32.32h-29.383c-20.721 0-37.579 16.856-37.579 37.577s16.858 37.577 37.579 37.577h29.383c12.434 19.401 34.136 32.32 58.84 32.32s46.406-12.919 58.84-32.32h222.085c20.721 0 37.579-16.856 37.579-37.577s-16.858-37.577-37.579-37.577zm-369.148 61.316c-13.09 0-23.741-10.649-23.741-23.739s10.651-23.739 23.741-23.739h22.566c-2.694 7.425-4.24 15.395-4.24 23.739s1.546 16.314 4.24 23.739zm88.223 32.32c-30.91 0-56.059-25.149-56.059-56.059s25.149-56.059 56.059-56.059 56.058 25.149 56.058 56.059-25.148 56.059-56.058 56.059zm280.925-32.32h-215.268c2.694-7.425 4.239-15.395 4.239-23.739s-1.546-16.314-4.239-23.739h215.269c13.09 0 23.741 10.649 23.741 23.739s-10.652 23.739-23.742 23.739zm0 124.788h-52.954c-12.434-19.401-34.136-32.32-58.84-32.32-24.705 0-46.406 12.919-58.84 32.32h-198.514c-20.721 0-37.579 16.856-37.579 37.577s16.858 37.577 37.579 37.577h198.513c12.434 19.401 34.136 32.32 58.84 32.32 24.705 0 46.406-12.919 58.84-32.32h52.955c20.721 0 37.579-16.856 37.579-37.577s-16.858-37.577-37.579-37.577zm-369.148 61.315c-13.09 0-23.741-10.649-23.741-23.739s10.651-23.739 23.741-23.739h191.697c-2.694 7.425-4.24 15.395-4.24 23.739s1.546 16.314 4.24 23.739zm257.353 32.32c-30.91 0-56.059-25.149-56.059-56.059s25.149-56.059 56.059-56.059 56.059 25.149 56.059 56.059-25.149 56.059-56.059 56.059zm111.795-32.32h-46.138c2.694-7.425 4.239-15.395 4.239-23.739s-1.546-16.314-4.239-23.739h46.138c13.09 0 23.741 10.649 23.741 23.739s-10.651 23.739-23.741 23.739zm-369.148-358.369h198.513c12.434 19.401 34.136 32.32 58.84 32.32 24.705 0 46.406-12.919 58.84-32.32h52.955c20.721 0 37.579-16.856 37.579-37.577s-16.858-37.581-37.579-37.581h-52.957c-12.435-19.398-34.135-32.315-58.838-32.315s-46.403 12.917-58.838 32.315h-198.515c-20.721 0-37.579 16.86-37.579 37.581s16.858 37.577 37.579 37.577zm369.148-61.32c13.09 0 23.741 10.653 23.741 23.743s-10.651 23.739-23.741 23.739h-46.138c2.694-7.425 4.239-15.395 4.239-23.739 0-8.345-1.546-16.318-4.241-23.743zm-111.795-32.315c30.91 0 56.059 25.149 56.059 56.059s-25.149 56.059-56.059 56.059-56.059-25.149-56.059-56.059 25.149-56.059 56.059-56.059zm-257.353 32.315h191.698c-2.695 7.426-4.241 15.399-4.241 23.743 0 8.343 1.546 16.314 4.24 23.739h-191.697c-13.09 0-23.741-10.649-23.741-23.739s10.651-23.743 23.741-23.743z"/></svg>