<svg height="512pt" viewBox="-40 0 512 512" width="512pt" xmlns="http://www.w3.org/2000/svg"><path d="m231.992188 137.355469c-35.941407 0-66.023438 25.585937-72.984376 59.5h145.964844c-6.960937-33.914063-37.039062-59.5-72.980468-59.5zm0 0"/><path d="m32.5 0v65h-32.5v30h32.5v28.667969h-32.5v30h32.5v28.667969h-32.5v30h32.5v28.664062h-32.5v30h32.5v28.667969h-32.5v30h32.5v28.667969h-32.5v30h32.5v28.664062h-32.5v30h32.5v65h398.980469v-512zm277.242188 428h-155.5v-30h155.5zm0-61h-155.5v-30h155.5zm-152.648438-70.070312v-30h30v30zm59.898438 0v-30h30v30zm59.894531 0v-30h30v30zm74.605469-70.074219h-239v-30h16.078124c6.589844-45.640625 42.78125-81.828125 88.421876-88.417969v-22.152344h30v22.152344c45.636718 6.589844 81.828124 42.78125 88.417968 88.417969h16.082032zm0 0"/></svg>