<svg id="Capa_1" enable-background="new 0 0 512 512" height="512" viewBox="0 0 512 512" width="512" xmlns="http://www.w3.org/2000/svg"><g id="XMLID_2476_"><g id="XMLID_351_"><path id="XMLID_374_" d="m512 386c0-15.593-11.215-28.61-26-31.428v-26.572c0-61.436-23.924-119.193-67.365-162.635-36.283-36.283-82.557-58.938-132.616-65.423 2.537-4.758 3.981-10.183 3.981-15.942 0-18.748-15.252-34-34-34s-34 15.252-34 34c0 5.759 1.444 11.184 3.981 15.943-50.059 6.485-96.333 29.14-132.616 65.423-43.441 43.441-67.365 101.198-67.365 162.634v26.572c-14.785 2.818-26 15.835-26 31.428 0 17.289 13.784 31.41 30.938 31.973 4.695 25.026 26.695 44.027 53.062 44.027h344c26.367 0 48.367-19.001 53.062-44.027 17.154-.563 30.938-14.684 30.938-31.973zm-270-302c0-7.72 6.28-14 14-14s14 6.28 14 14-6.28 14-14 14-14-6.28-14-14zm186 358h-344c-15.27 0-28.22-10.117-32.5-24h409c-4.28 13.883-17.23 24-32.5 24zm52-44h-448c-6.617 0-12-5.383-12-12s5.383-12 12-12h179c5.522 0 10-4.478 10-10s-4.478-10-10-10h-165v-26c0-115.794 94.206-210 210-210s210 94.206 210 210v26h-165c-5.522 0-10 4.478-10 10s4.478 10 10 10h179c6.617 0 12 5.383 12 12s-5.383 12-12 12z"/><path id="XMLID_377_" d="m256 354c-2.63 0-5.21 1.069-7.07 2.93s-2.93 4.44-2.93 7.07 1.069 5.21 2.93 7.069c1.86 1.86 4.44 2.931 7.07 2.931s5.21-1.07 7.069-2.931c1.861-1.859 2.931-4.439 2.931-7.069s-1.07-5.21-2.931-7.07c-1.859-1.861-4.439-2.93-7.069-2.93z"/></g></g></svg>